<?xml version="1.0" standalone="no"?>
<!DOCTYPE svg PUBLIC "-//W3C//DTD SVG 20010904//EN"
 "http://www.w3.org/TR/2001/REC-SVG-20010904/DTD/svg10.dtd">
<svg version="1.0" xmlns="http://www.w3.org/2000/svg"
 width="500.000000pt" height="500.000000pt" viewBox="0 0 500.000000 500.000000"
 preserveAspectRatio="xMidYMid meet">

<g transform="translate(0.000000,500.000000) scale(0.100000,-0.100000)"
fill="#000000" stroke="none">
<path d="M2090 3014 c-152 -41 -284 -185 -284 -309 0 -62 36 -131 111 -215
l54 -59 -25 -38 c-31 -46 -45 -107 -35 -151 17 -82 139 -146 230 -122 117 32
95 92 -111 305 -157 163 -190 213 -190 290 0 60 29 116 96 182 150 150 328
136 378 -29 8 -27 26 -21 26 7 0 58 -60 126 -128 145 -46 12 -54 12 -122 -6z
m-19 -681 c123 -129 137 -193 43 -193 -90 0 -174 69 -174 143 0 40 34 127 50
127 4 0 41 -35 81 -77z"/>
<path d="M2831 2845 c-151 -28 -291 -97 -291 -145 0 -27 42 -52 119 -71 l66
-17 3 -98 c4 -146 1 -158 -56 -182 -26 -11 -81 -30 -122 -43 -54 -17 -68 -24
-50 -27 14 -1 67 11 119 28 51 16 95 30 97 30 2 0 5 -61 6 -135 2 -81 7 -135
13 -135 6 0 14 62 20 146 10 141 11 147 35 162 220 132 360 283 360 388 0 95
-126 134 -319 99z m240 -38 c68 -46 44 -129 -72 -251 -64 -68 -205 -176 -230
-176 -5 0 -9 52 -9 115 l0 116 35 -3 c43 -3 57 9 19 17 -43 9 -58 20 -64 45
-9 36 -30 37 -30 1 0 -17 -1 -31 -2 -31 -2 0 -27 7 -57 14 -107 29 -112 69
-13 114 94 43 178 61 288 61 89 1 105 -2 135 -22z"/>
<path d="M2267 2443 c-3 -4 -8 -23 -12 -40 -3 -18 -11 -36 -17 -39 -15 -10
-29 17 -23 44 5 19 2 23 -12 20 -12 -2 -19 -14 -21 -34 -4 -41 22 -68 55 -59
14 3 31 1 39 -6 19 -16 26 5 22 66 -3 44 -19 69 -31 48z"/>
<path d="M2370 2433 c-14 -10 -33 -16 -43 -15 -16 3 -18 -3 -15 -44 2 -26 8
-49 15 -51 6 -2 21 16 32 41 11 25 22 46 25 46 3 0 12 -16 20 -35 24 -56 91
-57 161 -1 42 34 26 43 -20 11 -58 -39 -105 -30 -105 20 0 23 -17 45 -35 45
-6 0 -22 -8 -35 -17z"/>
<path d="M3011 2421 c-12 -12 -21 -30 -21 -41 0 -25 34 -60 58 -60 24 0 105
42 110 57 2 8 -18 2 -47 -13 -42 -22 -53 -24 -66 -14 -22 18 -19 25 18 35 22
7 32 16 32 30 0 29 -57 33 -84 6z m59 -5 c0 -3 -4 -8 -10 -11 -5 -3 -10 -1
-10 4 0 6 5 11 10 11 6 0 10 -2 10 -4z"/>
</g>
</svg>
